<mxfile host="Electron" agent="Mozilla/5.0 (Windows NT 10.0; Win64; x64) AppleWebKit/537.36 (KHTML, like Gecko) draw.io/26.0.16 Chrome/132.0.6834.196 Electron/34.2.0 Safari/537.36" version="26.0.16">
  <diagram id="R2lEEEUBdFMjLlhIrx00" name="Page-1">
    <mxGraphModel dx="1684" dy="871" grid="1" gridSize="10" guides="1" tooltips="1" connect="1" arrows="1" fold="1" page="1" pageScale="1" pageWidth="850" pageHeight="1100" math="0" shadow="0" extFonts="Permanent Marker^https://fonts.googleapis.com/css?family=Permanent+Marker">
      <root>
        <mxCell id="0" />
        <mxCell id="1" parent="0" />
        <mxCell id="dj_mc97FHzltsNFz_EdP-20" style="edgeStyle=orthogonalEdgeStyle;rounded=0;orthogonalLoop=1;jettySize=auto;html=1;exitX=0.25;exitY=1;exitDx=0;exitDy=0;entryX=1;entryY=0.5;entryDx=0;entryDy=0;endArrow=none;startFill=0;startArrow=ERzeroToMany;labelBackgroundColor=none;fontColor=default;" parent="1" source="dj_mc97FHzltsNFz_EdP-1" target="dj_mc97FHzltsNFz_EdP-6" edge="1">
          <mxGeometry relative="1" as="geometry" />
        </mxCell>
        <mxCell id="dj_mc97FHzltsNFz_EdP-1" value="Product" style="whiteSpace=wrap;html=1;align=center;labelBackgroundColor=none;" parent="1" vertex="1">
          <mxGeometry x="720" y="640" width="100" height="40" as="geometry" />
        </mxCell>
        <mxCell id="dj_mc97FHzltsNFz_EdP-19" style="edgeStyle=orthogonalEdgeStyle;rounded=0;orthogonalLoop=1;jettySize=auto;html=1;exitX=0.75;exitY=1;exitDx=0;exitDy=0;entryX=0;entryY=0.5;entryDx=0;entryDy=0;endArrow=none;startFill=0;startArrow=ERzeroToMany;labelBackgroundColor=none;fontColor=default;" parent="1" source="dj_mc97FHzltsNFz_EdP-2" target="dj_mc97FHzltsNFz_EdP-6" edge="1">
          <mxGeometry relative="1" as="geometry" />
        </mxCell>
        <mxCell id="pvcjsotyBJK7agMQeNmV-21" style="edgeStyle=orthogonalEdgeStyle;rounded=0;orthogonalLoop=1;jettySize=auto;html=1;exitX=0.25;exitY=1;exitDx=0;exitDy=0;entryX=1;entryY=0.5;entryDx=0;entryDy=0;endArrow=ERmandOne;endFill=0;startArrow=ERmandOne;startFill=0;" edge="1" parent="1" source="dj_mc97FHzltsNFz_EdP-2" target="pvcjsotyBJK7agMQeNmV-14">
          <mxGeometry relative="1" as="geometry" />
        </mxCell>
        <mxCell id="dj_mc97FHzltsNFz_EdP-2" value="Customer" style="whiteSpace=wrap;html=1;align=center;labelBackgroundColor=none;" parent="1" vertex="1">
          <mxGeometry x="20" y="640" width="100" height="40" as="geometry" />
        </mxCell>
        <mxCell id="dj_mc97FHzltsNFz_EdP-21" style="edgeStyle=orthogonalEdgeStyle;rounded=0;orthogonalLoop=1;jettySize=auto;html=1;exitX=0;exitY=0.5;exitDx=0;exitDy=0;entryX=1;entryY=0.5;entryDx=0;entryDy=0;startArrow=none;startFill=0;endArrow=ERmandOne;endFill=0;labelBackgroundColor=none;fontColor=default;" parent="1" source="dj_mc97FHzltsNFz_EdP-22" target="dj_mc97FHzltsNFz_EdP-4" edge="1">
          <mxGeometry relative="1" as="geometry" />
        </mxCell>
        <mxCell id="dj_mc97FHzltsNFz_EdP-3" value="Order" style="whiteSpace=wrap;html=1;align=center;labelBackgroundColor=none;" parent="1" vertex="1">
          <mxGeometry x="360" y="640" width="100" height="40" as="geometry" />
        </mxCell>
        <mxCell id="dj_mc97FHzltsNFz_EdP-4" value="Transaction" style="whiteSpace=wrap;html=1;align=center;labelBackgroundColor=none;" parent="1" vertex="1">
          <mxGeometry x="20" y="380" width="100" height="40" as="geometry" />
        </mxCell>
        <mxCell id="dj_mc97FHzltsNFz_EdP-5" value="Shipping" style="whiteSpace=wrap;html=1;align=center;labelBackgroundColor=none;" parent="1" vertex="1">
          <mxGeometry x="360" y="880" width="100" height="40" as="geometry" />
        </mxCell>
        <mxCell id="dj_mc97FHzltsNFz_EdP-6" value="Review" style="shape=associativeEntity;whiteSpace=wrap;html=1;align=center;labelBackgroundColor=none;" parent="1" vertex="1">
          <mxGeometry x="360" y="1160" width="100" height="40" as="geometry" />
        </mxCell>
        <mxCell id="dj_mc97FHzltsNFz_EdP-11" style="edgeStyle=orthogonalEdgeStyle;rounded=0;orthogonalLoop=1;jettySize=auto;html=1;exitX=1;exitY=0.5;exitDx=0;exitDy=0;entryX=0;entryY=0.5;entryDx=0;entryDy=0;endArrow=ERoneToMany;endFill=0;labelBackgroundColor=none;fontColor=default;" parent="1" source="dj_mc97FHzltsNFz_EdP-7" target="dj_mc97FHzltsNFz_EdP-1" edge="1">
          <mxGeometry relative="1" as="geometry" />
        </mxCell>
        <mxCell id="dj_mc97FHzltsNFz_EdP-12" style="edgeStyle=orthogonalEdgeStyle;rounded=0;orthogonalLoop=1;jettySize=auto;html=1;exitX=0;exitY=0.5;exitDx=0;exitDy=0;entryX=1;entryY=0.5;entryDx=0;entryDy=0;endArrow=ERzeroToMany;endFill=0;labelBackgroundColor=none;fontColor=default;" parent="1" source="dj_mc97FHzltsNFz_EdP-7" target="dj_mc97FHzltsNFz_EdP-3" edge="1">
          <mxGeometry relative="1" as="geometry" />
        </mxCell>
        <mxCell id="dj_mc97FHzltsNFz_EdP-7" value="Contain" style="shape=rhombus;perimeter=rhombusPerimeter;whiteSpace=wrap;html=1;align=center;labelBackgroundColor=none;" parent="1" vertex="1">
          <mxGeometry x="520" y="630" width="120" height="60" as="geometry" />
        </mxCell>
        <mxCell id="dj_mc97FHzltsNFz_EdP-9" style="edgeStyle=orthogonalEdgeStyle;rounded=0;orthogonalLoop=1;jettySize=auto;html=1;exitX=1;exitY=0.5;exitDx=0;exitDy=0;entryX=0;entryY=0.5;entryDx=0;entryDy=0;endArrow=ERzeroToMany;endFill=0;labelBackgroundColor=none;fontColor=default;" parent="1" source="dj_mc97FHzltsNFz_EdP-8" target="dj_mc97FHzltsNFz_EdP-3" edge="1">
          <mxGeometry relative="1" as="geometry" />
        </mxCell>
        <mxCell id="dj_mc97FHzltsNFz_EdP-10" style="edgeStyle=orthogonalEdgeStyle;rounded=0;orthogonalLoop=1;jettySize=auto;html=1;exitX=0;exitY=0.5;exitDx=0;exitDy=0;entryX=1;entryY=0.5;entryDx=0;entryDy=0;endArrow=ERmandOne;endFill=0;labelBackgroundColor=none;fontColor=default;" parent="1" source="dj_mc97FHzltsNFz_EdP-8" target="dj_mc97FHzltsNFz_EdP-2" edge="1">
          <mxGeometry relative="1" as="geometry" />
        </mxCell>
        <mxCell id="dj_mc97FHzltsNFz_EdP-8" value="Reserve" style="shape=rhombus;perimeter=rhombusPerimeter;whiteSpace=wrap;html=1;align=center;shadow=0;labelBackgroundColor=none;" parent="1" vertex="1">
          <mxGeometry x="190" y="630" width="120" height="60" as="geometry" />
        </mxCell>
        <mxCell id="dj_mc97FHzltsNFz_EdP-17" style="edgeStyle=orthogonalEdgeStyle;rounded=0;orthogonalLoop=1;jettySize=auto;html=1;exitX=0.5;exitY=0;exitDx=0;exitDy=0;entryX=0.5;entryY=1;entryDx=0;entryDy=0;endArrow=ERmandOne;endFill=0;labelBackgroundColor=none;fontColor=default;" parent="1" source="dj_mc97FHzltsNFz_EdP-16" target="dj_mc97FHzltsNFz_EdP-3" edge="1">
          <mxGeometry relative="1" as="geometry" />
        </mxCell>
        <mxCell id="dj_mc97FHzltsNFz_EdP-18" style="edgeStyle=orthogonalEdgeStyle;rounded=0;orthogonalLoop=1;jettySize=auto;html=1;exitX=0.5;exitY=1;exitDx=0;exitDy=0;entryX=0.5;entryY=0;entryDx=0;entryDy=0;endArrow=ERmandOne;endFill=0;labelBackgroundColor=none;fontColor=default;" parent="1" source="dj_mc97FHzltsNFz_EdP-16" target="dj_mc97FHzltsNFz_EdP-5" edge="1">
          <mxGeometry relative="1" as="geometry" />
        </mxCell>
        <mxCell id="dj_mc97FHzltsNFz_EdP-16" value="Ship" style="shape=rhombus;perimeter=rhombusPerimeter;whiteSpace=wrap;html=1;align=center;labelBackgroundColor=none;" parent="1" vertex="1">
          <mxGeometry x="350" y="750" width="120" height="60" as="geometry" />
        </mxCell>
        <mxCell id="dj_mc97FHzltsNFz_EdP-23" value="" style="edgeStyle=orthogonalEdgeStyle;rounded=0;orthogonalLoop=1;jettySize=auto;html=1;exitX=0.25;exitY=0;exitDx=0;exitDy=0;entryX=1;entryY=0.5;entryDx=0;entryDy=0;endArrow=none;startFill=0;startArrow=ERmandOne;labelBackgroundColor=none;fontColor=default;" parent="1" source="dj_mc97FHzltsNFz_EdP-3" target="dj_mc97FHzltsNFz_EdP-22" edge="1">
          <mxGeometry relative="1" as="geometry">
            <mxPoint x="385" y="640" as="sourcePoint" />
            <mxPoint x="130" y="420" as="targetPoint" />
          </mxGeometry>
        </mxCell>
        <mxCell id="dj_mc97FHzltsNFz_EdP-22" value="belong" style="shape=rhombus;perimeter=rhombusPerimeter;whiteSpace=wrap;html=1;align=center;labelBackgroundColor=none;" parent="1" vertex="1">
          <mxGeometry x="240" y="370" width="120" height="60" as="geometry" />
        </mxCell>
        <mxCell id="dj_mc97FHzltsNFz_EdP-25" value="" style="edgeStyle=orthogonalEdgeStyle;rounded=0;orthogonalLoop=1;jettySize=auto;html=1;endArrow=ERmandOne;endFill=0;labelBackgroundColor=none;fontColor=default;" parent="1" source="dj_mc97FHzltsNFz_EdP-24" target="dj_mc97FHzltsNFz_EdP-2" edge="1">
          <mxGeometry relative="1" as="geometry" />
        </mxCell>
        <mxCell id="dj_mc97FHzltsNFz_EdP-26" value="" style="edgeStyle=orthogonalEdgeStyle;rounded=0;orthogonalLoop=1;jettySize=auto;html=1;endArrow=ERzeroToMany;endFill=0;labelBackgroundColor=none;fontColor=default;" parent="1" source="dj_mc97FHzltsNFz_EdP-24" target="dj_mc97FHzltsNFz_EdP-4" edge="1">
          <mxGeometry relative="1" as="geometry" />
        </mxCell>
        <mxCell id="dj_mc97FHzltsNFz_EdP-24" value="Relationship" style="shape=rhombus;perimeter=rhombusPerimeter;whiteSpace=wrap;html=1;align=center;labelBackgroundColor=none;" parent="1" vertex="1">
          <mxGeometry x="10" y="490" width="120" height="60" as="geometry" />
        </mxCell>
        <mxCell id="dj_mc97FHzltsNFz_EdP-65" style="edgeStyle=orthogonalEdgeStyle;rounded=0;orthogonalLoop=1;jettySize=auto;html=1;exitX=0;exitY=0.5;exitDx=0;exitDy=0;entryX=1;entryY=0.5;entryDx=0;entryDy=0;endArrow=none;startFill=0;curved=1;labelBackgroundColor=none;fontColor=default;" parent="1" source="dj_mc97FHzltsNFz_EdP-27" target="dj_mc97FHzltsNFz_EdP-1" edge="1">
          <mxGeometry relative="1" as="geometry" />
        </mxCell>
        <mxCell id="dj_mc97FHzltsNFz_EdP-27" value="ProductID" style="ellipse;whiteSpace=wrap;html=1;align=center;fontStyle=4;labelBackgroundColor=none;" parent="1" vertex="1">
          <mxGeometry x="880" y="510" width="100" height="40" as="geometry" />
        </mxCell>
        <mxCell id="dj_mc97FHzltsNFz_EdP-66" style="edgeStyle=orthogonalEdgeStyle;rounded=0;orthogonalLoop=1;jettySize=auto;html=1;exitX=0;exitY=0.5;exitDx=0;exitDy=0;entryX=1;entryY=0.5;entryDx=0;entryDy=0;endArrow=none;startFill=0;curved=1;labelBackgroundColor=none;fontColor=default;" parent="1" source="dj_mc97FHzltsNFz_EdP-28" target="dj_mc97FHzltsNFz_EdP-1" edge="1">
          <mxGeometry relative="1" as="geometry">
            <mxPoint x="870" y="640" as="targetPoint" />
          </mxGeometry>
        </mxCell>
        <mxCell id="dj_mc97FHzltsNFz_EdP-28" value="ProductName" style="ellipse;whiteSpace=wrap;html=1;align=center;labelBackgroundColor=none;" parent="1" vertex="1">
          <mxGeometry x="910" y="560" width="100" height="40" as="geometry" />
        </mxCell>
        <mxCell id="dj_mc97FHzltsNFz_EdP-67" style="edgeStyle=orthogonalEdgeStyle;rounded=0;orthogonalLoop=1;jettySize=auto;html=1;exitX=0;exitY=0.5;exitDx=0;exitDy=0;entryX=1;entryY=0.5;entryDx=0;entryDy=0;endArrow=none;startFill=0;curved=1;labelBackgroundColor=none;fontColor=default;" parent="1" source="dj_mc97FHzltsNFz_EdP-29" target="dj_mc97FHzltsNFz_EdP-1" edge="1">
          <mxGeometry relative="1" as="geometry" />
        </mxCell>
        <mxCell id="dj_mc97FHzltsNFz_EdP-29" value="ProductDescription" style="ellipse;whiteSpace=wrap;html=1;align=center;labelBackgroundColor=none;" parent="1" vertex="1">
          <mxGeometry x="920" y="610" width="100" height="40" as="geometry" />
        </mxCell>
        <mxCell id="dj_mc97FHzltsNFz_EdP-68" style="edgeStyle=orthogonalEdgeStyle;rounded=0;orthogonalLoop=1;jettySize=auto;html=1;exitX=0;exitY=0.5;exitDx=0;exitDy=0;entryX=1;entryY=0.5;entryDx=0;entryDy=0;endArrow=none;startFill=0;curved=1;labelBackgroundColor=none;fontColor=default;" parent="1" source="dj_mc97FHzltsNFz_EdP-30" target="dj_mc97FHzltsNFz_EdP-1" edge="1">
          <mxGeometry relative="1" as="geometry" />
        </mxCell>
        <mxCell id="dj_mc97FHzltsNFz_EdP-30" value="Price" style="ellipse;whiteSpace=wrap;html=1;align=center;labelBackgroundColor=none;" parent="1" vertex="1">
          <mxGeometry x="940" y="660" width="100" height="40" as="geometry" />
        </mxCell>
        <mxCell id="dj_mc97FHzltsNFz_EdP-69" style="edgeStyle=orthogonalEdgeStyle;rounded=0;orthogonalLoop=1;jettySize=auto;html=1;exitX=0;exitY=0.5;exitDx=0;exitDy=0;entryX=1;entryY=0.5;entryDx=0;entryDy=0;endArrow=none;startFill=0;curved=1;labelBackgroundColor=none;fontColor=default;" parent="1" source="dj_mc97FHzltsNFz_EdP-31" target="dj_mc97FHzltsNFz_EdP-1" edge="1">
          <mxGeometry relative="1" as="geometry" />
        </mxCell>
        <mxCell id="dj_mc97FHzltsNFz_EdP-31" value="QuantityInStock" style="ellipse;whiteSpace=wrap;html=1;align=center;labelBackgroundColor=none;" parent="1" vertex="1">
          <mxGeometry x="940" y="710" width="100" height="40" as="geometry" />
        </mxCell>
        <mxCell id="dj_mc97FHzltsNFz_EdP-70" style="edgeStyle=orthogonalEdgeStyle;rounded=0;orthogonalLoop=1;jettySize=auto;html=1;exitX=0;exitY=0.5;exitDx=0;exitDy=0;entryX=1;entryY=0.5;entryDx=0;entryDy=0;endArrow=none;startFill=0;curved=1;labelBackgroundColor=none;fontColor=default;" parent="1" source="dj_mc97FHzltsNFz_EdP-32" target="dj_mc97FHzltsNFz_EdP-1" edge="1">
          <mxGeometry relative="1" as="geometry" />
        </mxCell>
        <mxCell id="dj_mc97FHzltsNFz_EdP-32" value="Images" style="ellipse;whiteSpace=wrap;html=1;align=center;labelBackgroundColor=none;" parent="1" vertex="1">
          <mxGeometry x="930" y="770" width="100" height="40" as="geometry" />
        </mxCell>
        <mxCell id="dj_mc97FHzltsNFz_EdP-71" style="edgeStyle=orthogonalEdgeStyle;rounded=0;orthogonalLoop=1;jettySize=auto;html=1;exitX=0;exitY=0.5;exitDx=0;exitDy=0;entryX=1;entryY=0.5;entryDx=0;entryDy=0;endArrow=none;startFill=0;curved=1;labelBackgroundColor=none;fontColor=default;" parent="1" source="dj_mc97FHzltsNFz_EdP-33" target="dj_mc97FHzltsNFz_EdP-1" edge="1">
          <mxGeometry relative="1" as="geometry" />
        </mxCell>
        <mxCell id="dj_mc97FHzltsNFz_EdP-33" value="RelevantDetails" style="ellipse;whiteSpace=wrap;html=1;align=center;labelBackgroundColor=none;" parent="1" vertex="1">
          <mxGeometry x="900" y="820" width="100" height="40" as="geometry" />
        </mxCell>
        <mxCell id="dj_mc97FHzltsNFz_EdP-72" style="edgeStyle=orthogonalEdgeStyle;rounded=0;orthogonalLoop=1;jettySize=auto;html=1;exitX=1;exitY=0.5;exitDx=0;exitDy=0;entryX=0;entryY=0.5;entryDx=0;entryDy=0;endArrow=none;startFill=0;curved=1;labelBackgroundColor=none;fontColor=default;" parent="1" source="dj_mc97FHzltsNFz_EdP-34" target="dj_mc97FHzltsNFz_EdP-2" edge="1">
          <mxGeometry relative="1" as="geometry" />
        </mxCell>
        <mxCell id="dj_mc97FHzltsNFz_EdP-34" value="CustomerID" style="ellipse;whiteSpace=wrap;html=1;align=center;fontStyle=4;labelBackgroundColor=none;" parent="1" vertex="1">
          <mxGeometry x="-150" y="530" width="100" height="40" as="geometry" />
        </mxCell>
        <mxCell id="dj_mc97FHzltsNFz_EdP-73" style="edgeStyle=orthogonalEdgeStyle;rounded=0;orthogonalLoop=1;jettySize=auto;html=1;exitX=1;exitY=0.5;exitDx=0;exitDy=0;entryX=0;entryY=0.5;entryDx=0;entryDy=0;endArrow=none;startFill=0;curved=1;labelBackgroundColor=none;fontColor=default;" parent="1" source="dj_mc97FHzltsNFz_EdP-35" target="dj_mc97FHzltsNFz_EdP-2" edge="1">
          <mxGeometry relative="1" as="geometry">
            <mxPoint x="-40" y="670" as="targetPoint" />
          </mxGeometry>
        </mxCell>
        <mxCell id="dj_mc97FHzltsNFz_EdP-35" value="Name" style="ellipse;whiteSpace=wrap;html=1;align=center;labelBackgroundColor=none;" parent="1" vertex="1">
          <mxGeometry x="-170" y="580" width="100" height="40" as="geometry" />
        </mxCell>
        <mxCell id="dj_mc97FHzltsNFz_EdP-74" style="edgeStyle=orthogonalEdgeStyle;rounded=0;orthogonalLoop=1;jettySize=auto;html=1;exitX=1;exitY=0.5;exitDx=0;exitDy=0;entryX=0;entryY=0.5;entryDx=0;entryDy=0;endArrow=none;startFill=0;curved=1;labelBackgroundColor=none;fontColor=default;" parent="1" source="dj_mc97FHzltsNFz_EdP-36" target="dj_mc97FHzltsNFz_EdP-2" edge="1">
          <mxGeometry relative="1" as="geometry" />
        </mxCell>
        <mxCell id="dj_mc97FHzltsNFz_EdP-36" value="ContactInfo" style="ellipse;whiteSpace=wrap;html=1;align=center;labelBackgroundColor=none;" parent="1" vertex="1">
          <mxGeometry x="-190" y="634" width="100" height="40" as="geometry" />
        </mxCell>
        <mxCell id="dj_mc97FHzltsNFz_EdP-75" style="edgeStyle=orthogonalEdgeStyle;rounded=0;orthogonalLoop=1;jettySize=auto;html=1;exitX=1;exitY=0.5;exitDx=0;exitDy=0;entryX=0;entryY=0.5;entryDx=0;entryDy=0;endArrow=none;startFill=0;curved=1;labelBackgroundColor=none;fontColor=default;" parent="1" source="dj_mc97FHzltsNFz_EdP-37" target="dj_mc97FHzltsNFz_EdP-2" edge="1">
          <mxGeometry relative="1" as="geometry" />
        </mxCell>
        <mxCell id="dj_mc97FHzltsNFz_EdP-37" value="Shipping Address" style="ellipse;whiteSpace=wrap;html=1;align=center;labelBackgroundColor=none;" parent="1" vertex="1">
          <mxGeometry x="-190" y="680" width="100" height="40" as="geometry" />
        </mxCell>
        <mxCell id="dj_mc97FHzltsNFz_EdP-46" style="edgeStyle=orthogonalEdgeStyle;rounded=0;orthogonalLoop=1;jettySize=auto;html=1;exitX=0.5;exitY=1;exitDx=0;exitDy=0;curved=1;endArrow=none;startFill=0;labelBackgroundColor=none;fontColor=default;" parent="1" source="dj_mc97FHzltsNFz_EdP-39" edge="1">
          <mxGeometry relative="1" as="geometry">
            <mxPoint x="409.9999999999998" y="640" as="targetPoint" />
          </mxGeometry>
        </mxCell>
        <mxCell id="dj_mc97FHzltsNFz_EdP-39" value="OrderID" style="ellipse;whiteSpace=wrap;html=1;align=center;fontStyle=4;labelBackgroundColor=none;" parent="1" vertex="1">
          <mxGeometry x="420" y="340" width="100" height="40" as="geometry" />
        </mxCell>
        <mxCell id="dj_mc97FHzltsNFz_EdP-45" style="edgeStyle=orthogonalEdgeStyle;rounded=0;orthogonalLoop=1;jettySize=auto;html=1;exitX=0.5;exitY=1;exitDx=0;exitDy=0;entryX=0.5;entryY=0;entryDx=0;entryDy=0;curved=1;endArrow=none;startFill=0;labelBackgroundColor=none;fontColor=default;" parent="1" source="dj_mc97FHzltsNFz_EdP-40" target="dj_mc97FHzltsNFz_EdP-3" edge="1">
          <mxGeometry relative="1" as="geometry" />
        </mxCell>
        <mxCell id="dj_mc97FHzltsNFz_EdP-40" value="OrderNum" style="ellipse;whiteSpace=wrap;html=1;align=center;labelBackgroundColor=none;" parent="1" vertex="1">
          <mxGeometry x="520" y="350" width="100" height="40" as="geometry" />
        </mxCell>
        <mxCell id="dj_mc97FHzltsNFz_EdP-44" style="edgeStyle=orthogonalEdgeStyle;rounded=0;orthogonalLoop=1;jettySize=auto;html=1;exitX=0.5;exitY=1;exitDx=0;exitDy=0;entryX=0.5;entryY=0;entryDx=0;entryDy=0;curved=1;endArrow=none;startFill=0;labelBackgroundColor=none;fontColor=default;" parent="1" source="dj_mc97FHzltsNFz_EdP-41" target="dj_mc97FHzltsNFz_EdP-3" edge="1">
          <mxGeometry relative="1" as="geometry">
            <mxPoint x="459.9999999999998" y="580" as="targetPoint" />
          </mxGeometry>
        </mxCell>
        <mxCell id="dj_mc97FHzltsNFz_EdP-41" value="OrderDateTime" style="ellipse;whiteSpace=wrap;html=1;align=center;labelBackgroundColor=none;" parent="1" vertex="1">
          <mxGeometry x="620" y="360" width="100" height="40" as="geometry" />
        </mxCell>
        <mxCell id="dj_mc97FHzltsNFz_EdP-43" style="edgeStyle=orthogonalEdgeStyle;rounded=0;orthogonalLoop=1;jettySize=auto;html=1;exitX=0.5;exitY=1;exitDx=0;exitDy=0;entryX=0.5;entryY=0;entryDx=0;entryDy=0;curved=1;endArrow=none;startFill=0;labelBackgroundColor=none;fontColor=default;" parent="1" source="dj_mc97FHzltsNFz_EdP-42" target="dj_mc97FHzltsNFz_EdP-3" edge="1">
          <mxGeometry relative="1" as="geometry" />
        </mxCell>
        <mxCell id="dj_mc97FHzltsNFz_EdP-42" value="Total Price" style="ellipse;whiteSpace=wrap;html=1;align=center;labelBackgroundColor=none;" parent="1" vertex="1">
          <mxGeometry x="720" y="370" width="100" height="40" as="geometry" />
        </mxCell>
        <mxCell id="dj_mc97FHzltsNFz_EdP-52" style="edgeStyle=orthogonalEdgeStyle;rounded=0;orthogonalLoop=1;jettySize=auto;html=1;exitX=0.5;exitY=1;exitDx=0;exitDy=0;curved=1;endArrow=none;startFill=0;labelBackgroundColor=none;fontColor=default;" parent="1" source="dj_mc97FHzltsNFz_EdP-47" edge="1">
          <mxGeometry relative="1" as="geometry">
            <mxPoint x="580" y="630" as="targetPoint" />
          </mxGeometry>
        </mxCell>
        <mxCell id="dj_mc97FHzltsNFz_EdP-47" value="ProductQuantity" style="ellipse;whiteSpace=wrap;html=1;align=center;labelBackgroundColor=none;" parent="1" vertex="1">
          <mxGeometry x="550" y="550" width="100" height="40" as="geometry" />
        </mxCell>
        <mxCell id="dj_mc97FHzltsNFz_EdP-51" style="edgeStyle=orthogonalEdgeStyle;rounded=0;orthogonalLoop=1;jettySize=auto;html=1;exitX=0.5;exitY=1;exitDx=0;exitDy=0;entryX=0.5;entryY=0;entryDx=0;entryDy=0;curved=1;endArrow=none;startFill=0;labelBackgroundColor=none;fontColor=default;" parent="1" source="dj_mc97FHzltsNFz_EdP-49" target="dj_mc97FHzltsNFz_EdP-7" edge="1">
          <mxGeometry relative="1" as="geometry" />
        </mxCell>
        <mxCell id="dj_mc97FHzltsNFz_EdP-49" value="Price" style="ellipse;whiteSpace=wrap;html=1;align=center;labelBackgroundColor=none;" parent="1" vertex="1">
          <mxGeometry x="650" y="550" width="100" height="40" as="geometry" />
        </mxCell>
        <mxCell id="dj_mc97FHzltsNFz_EdP-54" style="edgeStyle=orthogonalEdgeStyle;rounded=0;orthogonalLoop=1;jettySize=auto;html=1;exitX=0.5;exitY=1;exitDx=0;exitDy=0;entryX=0.5;entryY=0;entryDx=0;entryDy=0;endArrow=none;startFill=0;curved=1;labelBackgroundColor=none;fontColor=default;" parent="1" source="dj_mc97FHzltsNFz_EdP-53" target="dj_mc97FHzltsNFz_EdP-3" edge="1">
          <mxGeometry relative="1" as="geometry" />
        </mxCell>
        <mxCell id="dj_mc97FHzltsNFz_EdP-53" value="Status" style="ellipse;whiteSpace=wrap;html=1;align=center;labelBackgroundColor=none;" parent="1" vertex="1">
          <mxGeometry x="815" y="390" width="100" height="40" as="geometry" />
        </mxCell>
        <mxCell id="dj_mc97FHzltsNFz_EdP-59" style="edgeStyle=orthogonalEdgeStyle;rounded=0;orthogonalLoop=1;jettySize=auto;html=1;exitX=0.5;exitY=1;exitDx=0;exitDy=0;entryX=0.5;entryY=0;entryDx=0;entryDy=0;endArrow=none;startFill=0;curved=1;labelBackgroundColor=none;fontColor=default;" parent="1" source="dj_mc97FHzltsNFz_EdP-55" target="dj_mc97FHzltsNFz_EdP-4" edge="1">
          <mxGeometry relative="1" as="geometry" />
        </mxCell>
        <mxCell id="dj_mc97FHzltsNFz_EdP-55" value="TransactionID" style="ellipse;whiteSpace=wrap;html=1;align=center;fontStyle=4;labelBackgroundColor=none;" parent="1" vertex="1">
          <mxGeometry x="250" y="220" width="100" height="40" as="geometry" />
        </mxCell>
        <mxCell id="dj_mc97FHzltsNFz_EdP-61" style="edgeStyle=orthogonalEdgeStyle;rounded=0;orthogonalLoop=1;jettySize=auto;html=1;exitX=0.5;exitY=1;exitDx=0;exitDy=0;entryX=0.5;entryY=0;entryDx=0;entryDy=0;endArrow=none;startFill=0;curved=1;labelBackgroundColor=none;fontColor=default;" parent="1" source="dj_mc97FHzltsNFz_EdP-56" target="dj_mc97FHzltsNFz_EdP-4" edge="1">
          <mxGeometry relative="1" as="geometry" />
        </mxCell>
        <mxCell id="dj_mc97FHzltsNFz_EdP-56" value="PaymentAmount" style="ellipse;whiteSpace=wrap;html=1;align=center;labelBackgroundColor=none;" parent="1" vertex="1">
          <mxGeometry x="140" y="200" width="100" height="40" as="geometry" />
        </mxCell>
        <mxCell id="dj_mc97FHzltsNFz_EdP-62" style="edgeStyle=orthogonalEdgeStyle;rounded=0;orthogonalLoop=1;jettySize=auto;html=1;exitX=0.5;exitY=1;exitDx=0;exitDy=0;entryX=0.5;entryY=0;entryDx=0;entryDy=0;endArrow=none;startFill=0;curved=1;labelBackgroundColor=none;fontColor=default;" parent="1" source="dj_mc97FHzltsNFz_EdP-57" target="dj_mc97FHzltsNFz_EdP-4" edge="1">
          <mxGeometry relative="1" as="geometry" />
        </mxCell>
        <mxCell id="dj_mc97FHzltsNFz_EdP-57" value="PaymentMethod" style="ellipse;whiteSpace=wrap;html=1;align=center;labelBackgroundColor=none;" parent="1" vertex="1">
          <mxGeometry x="30" y="200" width="100" height="40" as="geometry" />
        </mxCell>
        <mxCell id="dj_mc97FHzltsNFz_EdP-63" style="edgeStyle=orthogonalEdgeStyle;rounded=0;orthogonalLoop=1;jettySize=auto;html=1;exitX=0.5;exitY=1;exitDx=0;exitDy=0;entryX=0.5;entryY=0;entryDx=0;entryDy=0;endArrow=none;startFill=0;curved=1;labelBackgroundColor=none;fontColor=default;" parent="1" source="dj_mc97FHzltsNFz_EdP-58" target="dj_mc97FHzltsNFz_EdP-4" edge="1">
          <mxGeometry relative="1" as="geometry" />
        </mxCell>
        <mxCell id="dj_mc97FHzltsNFz_EdP-58" value="TimeStamp" style="ellipse;whiteSpace=wrap;html=1;align=center;labelBackgroundColor=none;" parent="1" vertex="1">
          <mxGeometry x="-70" y="220" width="100" height="40" as="geometry" />
        </mxCell>
        <mxCell id="dj_mc97FHzltsNFz_EdP-84" style="edgeStyle=orthogonalEdgeStyle;rounded=0;orthogonalLoop=1;jettySize=auto;html=1;exitX=0.5;exitY=0;exitDx=0;exitDy=0;entryX=0.5;entryY=1;entryDx=0;entryDy=0;endArrow=none;startFill=0;curved=1;labelBackgroundColor=none;fontColor=default;" parent="1" source="dj_mc97FHzltsNFz_EdP-77" target="dj_mc97FHzltsNFz_EdP-6" edge="1">
          <mxGeometry relative="1" as="geometry" />
        </mxCell>
        <mxCell id="dj_mc97FHzltsNFz_EdP-77" value="ReviesID" style="ellipse;whiteSpace=wrap;html=1;align=center;fontStyle=4;labelBackgroundColor=none;" parent="1" vertex="1">
          <mxGeometry x="180" y="1230" width="100" height="40" as="geometry" />
        </mxCell>
        <mxCell id="dj_mc97FHzltsNFz_EdP-86" style="edgeStyle=orthogonalEdgeStyle;rounded=0;orthogonalLoop=1;jettySize=auto;html=1;exitX=0.5;exitY=0;exitDx=0;exitDy=0;entryX=0.5;entryY=1;entryDx=0;entryDy=0;endArrow=none;startFill=0;curved=1;labelBackgroundColor=none;fontColor=default;" parent="1" source="dj_mc97FHzltsNFz_EdP-79" target="dj_mc97FHzltsNFz_EdP-6" edge="1">
          <mxGeometry relative="1" as="geometry" />
        </mxCell>
        <mxCell id="dj_mc97FHzltsNFz_EdP-79" value="ReviewText" style="ellipse;whiteSpace=wrap;html=1;align=center;labelBackgroundColor=none;" parent="1" vertex="1">
          <mxGeometry x="270" y="1260" width="100" height="40" as="geometry" />
        </mxCell>
        <mxCell id="dj_mc97FHzltsNFz_EdP-85" style="edgeStyle=orthogonalEdgeStyle;rounded=0;orthogonalLoop=1;jettySize=auto;html=1;exitX=0.5;exitY=0;exitDx=0;exitDy=0;entryX=0.5;entryY=1;entryDx=0;entryDy=0;endArrow=none;startFill=0;curved=1;labelBackgroundColor=none;fontColor=default;" parent="1" source="dj_mc97FHzltsNFz_EdP-80" target="dj_mc97FHzltsNFz_EdP-6" edge="1">
          <mxGeometry relative="1" as="geometry">
            <mxPoint x="400" y="1250" as="targetPoint" />
          </mxGeometry>
        </mxCell>
        <mxCell id="dj_mc97FHzltsNFz_EdP-80" value="RationScore" style="ellipse;whiteSpace=wrap;html=1;align=center;labelBackgroundColor=none;" parent="1" vertex="1">
          <mxGeometry x="380" y="1270" width="100" height="40" as="geometry" />
        </mxCell>
        <mxCell id="dj_mc97FHzltsNFz_EdP-82" style="edgeStyle=orthogonalEdgeStyle;rounded=0;orthogonalLoop=1;jettySize=auto;html=1;exitX=0.5;exitY=0;exitDx=0;exitDy=0;entryX=0.5;entryY=1;entryDx=0;entryDy=0;endArrow=none;startFill=0;curved=1;labelBackgroundColor=none;fontColor=default;" parent="1" source="dj_mc97FHzltsNFz_EdP-81" target="dj_mc97FHzltsNFz_EdP-6" edge="1">
          <mxGeometry relative="1" as="geometry" />
        </mxCell>
        <mxCell id="dj_mc97FHzltsNFz_EdP-81" value="TimeStamps" style="ellipse;whiteSpace=wrap;html=1;align=center;labelBackgroundColor=none;" parent="1" vertex="1">
          <mxGeometry x="490" y="1250" width="100" height="40" as="geometry" />
        </mxCell>
        <mxCell id="dj_mc97FHzltsNFz_EdP-100" style="edgeStyle=orthogonalEdgeStyle;rounded=0;orthogonalLoop=1;jettySize=auto;html=1;exitX=0.5;exitY=0;exitDx=0;exitDy=0;entryX=0.5;entryY=1;entryDx=0;entryDy=0;endArrow=none;startFill=0;curved=1;" parent="1" source="dj_mc97FHzltsNFz_EdP-87" target="dj_mc97FHzltsNFz_EdP-5" edge="1">
          <mxGeometry relative="1" as="geometry" />
        </mxCell>
        <mxCell id="dj_mc97FHzltsNFz_EdP-87" value="ShippingID" style="ellipse;whiteSpace=wrap;html=1;align=center;fontStyle=4;" parent="1" vertex="1">
          <mxGeometry x="150" y="940" width="100" height="40" as="geometry" />
        </mxCell>
        <mxCell id="dj_mc97FHzltsNFz_EdP-99" style="edgeStyle=orthogonalEdgeStyle;rounded=0;orthogonalLoop=1;jettySize=auto;html=1;exitX=0.5;exitY=0;exitDx=0;exitDy=0;entryX=0.5;entryY=1;entryDx=0;entryDy=0;endArrow=none;startFill=0;curved=1;" parent="1" source="dj_mc97FHzltsNFz_EdP-88" target="dj_mc97FHzltsNFz_EdP-5" edge="1">
          <mxGeometry relative="1" as="geometry" />
        </mxCell>
        <mxCell id="dj_mc97FHzltsNFz_EdP-88" value="shipping carrier &lt;br/&gt;details" style="ellipse;whiteSpace=wrap;html=1;align=center;" parent="1" vertex="1">
          <mxGeometry x="200" y="980" width="100" height="40" as="geometry" />
        </mxCell>
        <mxCell id="dj_mc97FHzltsNFz_EdP-98" style="edgeStyle=orthogonalEdgeStyle;rounded=0;orthogonalLoop=1;jettySize=auto;html=1;exitX=0.5;exitY=0;exitDx=0;exitDy=0;entryX=0.5;entryY=1;entryDx=0;entryDy=0;endArrow=none;startFill=0;curved=1;" parent="1" source="dj_mc97FHzltsNFz_EdP-89" target="dj_mc97FHzltsNFz_EdP-5" edge="1">
          <mxGeometry relative="1" as="geometry" />
        </mxCell>
        <mxCell id="dj_mc97FHzltsNFz_EdP-89" value="TracingNumber" style="ellipse;whiteSpace=wrap;html=1;align=center;" parent="1" vertex="1">
          <mxGeometry x="260" y="1030" width="100" height="40" as="geometry" />
        </mxCell>
        <mxCell id="dj_mc97FHzltsNFz_EdP-97" style="edgeStyle=orthogonalEdgeStyle;rounded=0;orthogonalLoop=1;jettySize=auto;html=1;exitX=0.5;exitY=0;exitDx=0;exitDy=0;entryX=0.5;entryY=1;entryDx=0;entryDy=0;endArrow=none;startFill=0;curved=1;" parent="1" source="dj_mc97FHzltsNFz_EdP-91" target="dj_mc97FHzltsNFz_EdP-5" edge="1">
          <mxGeometry relative="1" as="geometry" />
        </mxCell>
        <mxCell id="dj_mc97FHzltsNFz_EdP-91" value=" Estimated &lt;br/&gt;delivery date" style="ellipse;whiteSpace=wrap;html=1;align=center;" parent="1" vertex="1">
          <mxGeometry x="420" y="1030" width="100" height="40" as="geometry" />
        </mxCell>
        <mxCell id="dj_mc97FHzltsNFz_EdP-92" value="ShippingStatus" style="ellipse;whiteSpace=wrap;html=1;align=center;" parent="1" vertex="1">
          <mxGeometry x="1460" y="910" width="100" height="40" as="geometry" />
        </mxCell>
        <mxCell id="dj_mc97FHzltsNFz_EdP-96" style="edgeStyle=orthogonalEdgeStyle;rounded=0;orthogonalLoop=1;jettySize=auto;html=1;exitX=0.5;exitY=0;exitDx=0;exitDy=0;entryX=0.5;entryY=1;entryDx=0;entryDy=0;endArrow=none;startFill=0;curved=1;" parent="1" source="dj_mc97FHzltsNFz_EdP-93" target="dj_mc97FHzltsNFz_EdP-5" edge="1">
          <mxGeometry relative="1" as="geometry">
            <mxPoint x="400" y="960" as="targetPoint" />
          </mxGeometry>
        </mxCell>
        <mxCell id="dj_mc97FHzltsNFz_EdP-93" value="Actual Delivery Date" style="ellipse;whiteSpace=wrap;html=1;align=center;" parent="1" vertex="1">
          <mxGeometry x="490" y="990" width="100" height="40" as="geometry" />
        </mxCell>
        <mxCell id="dj_mc97FHzltsNFz_EdP-95" style="edgeStyle=orthogonalEdgeStyle;rounded=0;orthogonalLoop=1;jettySize=auto;html=1;exitX=0.5;exitY=0;exitDx=0;exitDy=0;entryX=0.5;entryY=1;entryDx=0;entryDy=0;endArrow=none;startFill=0;curved=1;" parent="1" source="dj_mc97FHzltsNFz_EdP-94" target="dj_mc97FHzltsNFz_EdP-5" edge="1">
          <mxGeometry relative="1" as="geometry" />
        </mxCell>
        <mxCell id="dj_mc97FHzltsNFz_EdP-94" value="NotesOrUpdates" style="ellipse;whiteSpace=wrap;html=1;align=center;" parent="1" vertex="1">
          <mxGeometry x="550" y="940" width="100" height="40" as="geometry" />
        </mxCell>
        <mxCell id="pvcjsotyBJK7agMQeNmV-14" value="Login Credential" style="whiteSpace=wrap;html=1;align=center;" vertex="1" parent="1">
          <mxGeometry x="-330" y="820" width="100" height="40" as="geometry" />
        </mxCell>
        <mxCell id="pvcjsotyBJK7agMQeNmV-20" style="edgeStyle=orthogonalEdgeStyle;rounded=0;orthogonalLoop=1;jettySize=auto;html=1;exitX=1;exitY=0.5;exitDx=0;exitDy=0;entryX=0;entryY=0.5;entryDx=0;entryDy=0;endArrow=none;startFill=0;curved=1;" edge="1" parent="1" source="pvcjsotyBJK7agMQeNmV-15" target="pvcjsotyBJK7agMQeNmV-14">
          <mxGeometry relative="1" as="geometry" />
        </mxCell>
        <mxCell id="pvcjsotyBJK7agMQeNmV-15" value="LoginCredentialID" style="ellipse;whiteSpace=wrap;html=1;align=center;fontStyle=4;" vertex="1" parent="1">
          <mxGeometry x="-470" y="740" width="100" height="40" as="geometry" />
        </mxCell>
        <mxCell id="pvcjsotyBJK7agMQeNmV-19" style="edgeStyle=orthogonalEdgeStyle;rounded=0;orthogonalLoop=1;jettySize=auto;html=1;exitX=1;exitY=0.5;exitDx=0;exitDy=0;entryX=0;entryY=0.5;entryDx=0;entryDy=0;endArrow=none;startFill=0;curved=1;" edge="1" parent="1" source="pvcjsotyBJK7agMQeNmV-16" target="pvcjsotyBJK7agMQeNmV-14">
          <mxGeometry relative="1" as="geometry" />
        </mxCell>
        <mxCell id="pvcjsotyBJK7agMQeNmV-16" value="UserName" style="ellipse;whiteSpace=wrap;html=1;align=center;" vertex="1" parent="1">
          <mxGeometry x="-490" y="800" width="100" height="40" as="geometry" />
        </mxCell>
        <mxCell id="pvcjsotyBJK7agMQeNmV-18" style="edgeStyle=orthogonalEdgeStyle;rounded=0;orthogonalLoop=1;jettySize=auto;html=1;exitX=1;exitY=0.5;exitDx=0;exitDy=0;entryX=0;entryY=0.5;entryDx=0;entryDy=0;endArrow=none;startFill=0;curved=1;" edge="1" parent="1" source="pvcjsotyBJK7agMQeNmV-17" target="pvcjsotyBJK7agMQeNmV-14">
          <mxGeometry relative="1" as="geometry" />
        </mxCell>
        <mxCell id="pvcjsotyBJK7agMQeNmV-17" value="PassWord" style="ellipse;whiteSpace=wrap;html=1;align=center;" vertex="1" parent="1">
          <mxGeometry x="-490" y="860" width="100" height="40" as="geometry" />
        </mxCell>
        <mxCell id="pvcjsotyBJK7agMQeNmV-24" style="edgeStyle=orthogonalEdgeStyle;rounded=0;orthogonalLoop=1;jettySize=auto;html=1;exitX=0.5;exitY=0;exitDx=0;exitDy=0;entryX=0.5;entryY=1;entryDx=0;entryDy=0;endArrow=none;startFill=0;curved=1;" edge="1" parent="1" source="pvcjsotyBJK7agMQeNmV-22" target="dj_mc97FHzltsNFz_EdP-5">
          <mxGeometry relative="1" as="geometry" />
        </mxCell>
        <mxCell id="pvcjsotyBJK7agMQeNmV-22" value="ShippingStatus" style="ellipse;whiteSpace=wrap;html=1;align=center;" vertex="1" parent="1">
          <mxGeometry x="350" y="1070" width="100" height="40" as="geometry" />
        </mxCell>
      </root>
    </mxGraphModel>
  </diagram>
</mxfile>
